#!OML:ASF H:\ManfredETheater\Project 1\Capture day 1\Session 1\subject.ASF
:FULLY-SPECIFIED
:DEGREES
65
root -2.32867 16.1414 -32.4572 14.8585 13.9478 5.86079
lowerback 13.4556 -5.13881 -0.143576
upperback 0.549618 -6.78012 0.510929
thorax -6.85243 -3.28325 1.90857
lowerneck -18.1807 0.0333937 -0.657558
upperneck 7.6864 0.690979 -3.98761
head 5.26752 0.0139999 -1.09072
rclavicle -5.37713e-014 -1.98785e-015
rhumerus -76.2808 2.44986 -75.125
rradius 70.9327
rwrist 0.048635
rhand -22.3107 -3.74471
rfingers 7.12502
rthumb 4.10874 -33.6848
lclavicle -5.37713e-014 -1.98785e-015
lhumerus -44.5243 -18.4031 103.373
lradius 80.4664
lwrist -4.36641
lhand -24.9345 -20.626
lfingers 7.12502
lthumb 1.57485 9.34796
rfemur -58.1419 -1.52463 -2.09703
rtibia 29.9153
rfoot -0.810451 -14.7422
rtoes -30.0438
lfemur -2.10098 -16.7011 -23.9249
ltibia 58.0251
lfoot -17.7546 -2.31766
ltoes -11.7102
66
root -2.39465 16.063 -32.0663 14.2082 15.5137 5.7493
lowerback 13.6755 -5.36533 -0.0787099
upperback 0.719838 -7.05529 0.640597
thorax -6.77723 -3.41728 2.07124
lowerneck -18.023 -0.210005 -0.877818
upperneck 7.9482 0.397035 -3.7692
head 5.31851 -0.12257 -1.01488
rclavicle -7.45443e-015 7.15625e-015
rhumerus -76.6306 1.90184 -74.8303
rradius 71.229
rwrist 0.361801
rhand -22.3852 -3.4788
rfingers 7.12502
rthumb 4.03681 -33.4203
lclavicle -7.45443e-015 7.15625e-015
lhumerus -44.3434 -18.7563 103.454
lradius 80.1825
lwrist -5.21881
lhand -24.5207 -20.8217
lfingers 7.12502
lthumb 1.97447 9.14894
rfemur -56.9353 -1.21792 -2.7652
rtibia 29.297
rfoot -0.503165 -15.454
rtoes -31.7157
lfemur -2.43481 -16.9741 -23.0611
ltibia 60.8724
lfoot -18.0194 -1.70861
ltoes -11.6443
67
root -2.46527 15.9742 -31.6816 13.4672 17.0605 5.51095
lowerback 14.0442 -5.56003 0.0352308
upperback 0.879923 -7.27871 0.767585
thorax -6.80209 -3.52486 2.21238
lowerneck -17.8583 -0.483614 -1.12314
upperneck 8.21299 0.0576375 -3.47718
head 5.36976 -0.276558 -0.915997
rclavicle 4.42296e-014 -2.0276e-014
rhumerus -76.9103 1.29135 -74.5847
rradius 71.4502
rwrist 0.578811
rhand -22.5282 -3.33756
rfingers 7.12502
rthumb 3.89873 -33.2816
lclavicle 4.42296e-014 -2.0276e-014
lhumerus -44.165 -18.9543 103.43
lradius 79.9731
lwrist -6.17891
lhand -24.1431 -20.9692
lfingers 7.12502
lthumb 2.33919 8.99775
rfemur -55.9758 -1.11685 -2.90242
rtibia 29.6
rfoot 0.158807 -15.5009
rtoes -34.4341
lfemur -3.02041 -17.1002 -22.0258
ltibia 63.9802
lfoot -18.3707 -1.33535
ltoes -11.6139
68
root -2.5394 15.8775 -31.3061 12.6198 18.5217 5.13918
lowerback 14.5959 -5.70891 0.199718
upperback 1.03357 -7.43023 0.881517
thorax -6.94435 -3.59552 2.32124
lowerneck -17.7012 -0.775503 -1.36822
upperneck 8.47955 -0.314003 -3.13821
head 5.42426 -0.442749 -0.805375
rclavicle 1.95803e-014 9.14409e-015
rhumerus -77.0836 0.632602 -74.4126
rradius 71.5697
rwrist 0.678083
rhand -22.7302 -3.33134
rfingers 7.12502
rthumb 3.70363 -33.2789
lclavicle 1.95803e-014 9.14409e-015
lhumerus -43.9736 -18.9718 103.29
lradius 79.8386
lwrist -7.21647
lhand -23.8157 -21.0682
lfingers 7.12502
lthumb 2.6553 8.89503
rfemur -55.3552 -1.3047 -2.446
rtibia 30.8463
rfoot 1.2956 -14.7655
rtoes -37.7633
lfemur -3.83847 -17.0502 -20.856
ltibia 67.29
lfoot -18.7815 -1.17488
ltoes -11.6372
69
root -2.61561 15.7753 -30.9423 11.6419 19.8409 4.60769
lowerback 15.3499 -5.80254 0.436526
upperback 1.19186 -7.49064 0.984348
thorax -7.20551 -3.62027 2.38543
lowerneck -17.5442 -1.07584 -1.60389
upperneck 8.72024 -0.705517 -2.77221
head 5.47267 -0.61577 -0.689439
rclavicle -8.05078e-015 9.54166e-015
rhumerus -77.0993 -0.056087 -74.3254
rradius 71.5567
rwrist 0.652488
rhand -22.9796 -3.4553
rfingers 7.12502
rthumb 3.46279 -33.4069
lclavicle -8.05078e-015 9.54166e-015
lhumerus -43.7393 -18.7928 103.04
lradius 79.7724
lwrist -8.24372
lhand -23.555 -21.1024
lfingers 7.12502
lthumb 2.90709 8.85756
rfemur -55.092 -1.78334 -1.39804
rtibia 32.9825
rfoot 2.69183 -13.2847
rtoes -40.9328
lfemur -4.85224 -16.8024 -19.566
ltibia 70.7419
lfoot -19.2351 -1.23093
ltoes -11.6947
70
root -2.69207 15.6709 -30.5923 10.4977 20.972 3.86045
lowerback 16.3162 -5.83862 0.800406
upperback 1.36858 -7.44179 1.08763
thorax -7.58106 -3.59208 2.38117
lowerneck -17.3789 -1.37675 -1.82613
upperneck 8.90896 -1.10629 -2.39255
head 5.50565 -0.790955 -0.5718
rclavicle -3.71727e-014 -1.59028e-015
rhumerus -76.9157 -0.752334 -74.3328
rradius 71.4022
rwrist 0.499713
rhand -23.2511 -3.71782
rfingers 7.12502
rthumb 3.2006 -33.6735
lclavicle -3.71727e-014 -1.59028e-015
lhumerus -43.4399 -18.4062 102.69
lradius 79.7655
lwrist -9.16223
lhand -23.4203 -21.0732
lfingers 7.12502
lthumb 3.03724 8.88494
rfemur -55.1356 -2.47379 0.201336
rtibia 35.8642
rfoot 4.12625 -11.2364
rtoes -42.8857
lfemur -6.01435 -16.3249 -18.1301
ltibia 74.2673
lfoot -19.7224 -1.49087
ltoes -11.8125
71
root -2.76705 15.5668 -30.2566 9.16112 21.884 2.8571
lowerback 17.4863 -5.82072 1.32824
upperback 1.57328 -7.27322 1.2054
thorax -8.05599 -3.50808 2.29386
lowerneck -17.1904 -1.67108 -2.03311
upperneck 9.02508 -1.50624 -2.00976
head 5.51429 -0.963975 -0.454758
rclavicle -3.90612e-014 -1.76918e-014
rhumerus -76.4936 -1.43043 -74.4385
rradius 71.0813
rwrist 0.241547
rhand -23.5419 -4.10497
rfingers 7.12502
rthumb 2.91973 -34.0647
lclavicle -3.90612e-014 -1.76918e-014
lhumerus -43.0684 -17.8102 102.266
lradius 79.8083
lwrist -9.87926
lhand -23.3951 -20.9621
lfingers 7.12502
lthumb 3.06157 8.9957
rfemur -55.399 -3.22792 2.23345
rtibia 39.2887
rfoot 5.34304 -9.17106
rtoes -43.3714
lfemur -7.27929 -15.5941 -16.5241
ltibia 77.8006
lfoot -20.2409 -1.95132
ltoes -11.9069
72
root -2.83983 15.4638 -29.9346 7.6451 22.5724 1.60199
lowerback 18.8051 -5.75553 2.01405
upperback 1.81789 -6.98642 1.34363
thorax -8.58008 -3.37148 2.11886
lowerneck -16.9769 -1.95898 -2.22432
upperneck 9.05805 -1.90595 -1.61783
head 5.4949 -1.13483 -0.336309
rclavicle -1.19271e-015 -6.75868e-015
rhumerus -75.7906 -2.07429 -74.6521
rradius 70.5597
rwrist -0.106134
rhand -23.8575 -4.58455
rfingers 7.12502
rthumb 2.61502 -34.5483
lclavicle -1.19271e-015 -6.75868e-015
lhumerus -42.6143 -17.0386 101.798
lradius 79.883
lwrist -10.3213
lhand -23.5444 -20.7326
lfingers 7.12502
lthumb 2.9174 9.22715
rfemur -55.7614 -3.92465 4.5639
rtibia 43.0304
rfoot 6.19343 -7.39221
rtoes -42.4259
lfemur -8.62944 -14.6098 -14.7437
ltibia 81.2894
lfoot -20.7953 -2.60675
ltoes -11.8977
73
root -2.91101 15.3638 -29.6245 6.00446 23.0686 0.177608
lowerback 20.2221 -5.65415 2.77537
upperback 2.0988 -6.60726 1.49869
thorax -9.11311 -3.19442 1.89105
lowerneck -16.7431 -2.24242 -2.40624
upperneck 9.02424 -2.30614 -1.21084
head 5.45357 -1.3042 -0.21365
rclavicle -4.6615e-014 6.06293e-015
rhumerus -74.7896 -2.65681 -74.9772
rradius 69.831
rwrist -0.525181
rhand -24.1922 -5.15611
rfingers 7.12502
rthumb 2.29178 -35.1235
lclavicle -4.6615e-014 6.06293e-015
lhumerus -42.0817 -16.1199 101.312
lradius 79.9748
lwrist -10.3924
lhand -23.8415 -20.3892
lfingers 7.12502
lthumb 2.6304 9.57433
rfemur -56.0294 -4.51935 7.03408
rtibia 46.7048
rfoot 6.64785 -6.12626
rtoes -40.2267
lfemur -10.0619 -13.4088 -12.8441
ltibia 84.6193
lfoot -21.301 -3.46926
ltoes -11.5792
